<svg width="378" height="80" viewBox="0 0 378 80" fill="none" xmlns="http://www.w3.org/2000/svg">
  <g clip-path="url(#clip0_27673_49773)">
    <path d="M60.7588 40H20.7588C20.7588 29 29.7588 20 40.7588 20C51.7588 20 60.7588 29 60.7588 40Z" fill="black" />
    <path
      d="M40.7588 0C18.6588 0 0.758759 17.9 0.758759 40C0.758759 62.1 18.6588 80 40.7588 80C62.8588 80 80.7588 62.1 80.7588 40C80.7588 17.9 62.8588 0 40.7588 0ZM40.7588 70C24.2588 70 10.7588 56.5 10.7588 40C10.7588 23.5 24.2588 10 40.7588 10C57.2588 10 70.7588 23.5 70.7588 40C70.7588 56.5 57.2588 70 40.7588 70Z"
      fill="black" />
    <path
      d="M118.559 29.1H129.159V39H118.559V69.9H106.559V39H100.759V29.1H106.559V27.3C106.559 21.8 108.059 17.5 111.059 14.5C114.059 11.5 118.159 10 123.359 10C126.159 10 128.359 10.4 130.059 11.3V21.6C128.759 20.9 127.159 20.5 125.459 20.5C123.559 20.5 121.859 21 120.559 22.1C119.259 23.1 118.559 24.9 118.559 27.4V29.1Z"
      fill="black" />
    <path
      d="M172.159 60.2C170.459 63.6 167.959 66.2 164.759 68.1C161.559 70 157.659 71 153.259 71C150.059 71 147.159 70.5 144.459 69.4C141.859 68.4 139.559 66.9 137.659 65C135.759 63.1 134.259 60.8 133.159 58.2C132.059 55.6 131.559 52.7 131.559 49.5C131.559 46.3 132.059 43.6 133.159 40.9C134.259 38.3 135.759 36 137.659 34.1C139.559 32.2 141.759 30.7 144.359 29.6C146.959 28.5 149.759 28 152.759 28C155.759 28 158.659 28.5 161.259 29.6C163.859 30.7 166.059 32.2 167.859 34.1C169.659 36 171.059 38.3 172.159 41C173.159 43.7 173.659 46.6 173.659 49.8C173.659 50.5 173.659 51.1 173.659 51.6C173.659 52.1 173.659 52.5 173.559 52.8H143.559C143.659 54 143.959 55.1 144.559 56.1C145.159 57.1 145.859 58 146.759 58.7C147.659 59.4 148.659 60 149.859 60.4C150.959 60.8 152.159 61 153.459 61C155.759 61 157.559 60.6 158.859 59.7C160.159 58.8 161.359 57.6 162.259 56.1L172.459 60.2H172.159ZM161.759 45C161.459 42.8 160.559 41 158.859 39.6C157.159 38.2 155.159 37.5 152.659 37.5C151.459 37.5 150.359 37.7 149.259 38.1C148.259 38.5 147.259 39.1 146.459 39.8C145.659 40.5 144.959 41.3 144.459 42.2C143.959 43.1 143.659 44 143.459 45H161.759V45Z"
      fill="black" />
    <path
      d="M218.159 70.0001L209.659 45.0001L201.159 70.0001H191.059L176.659 29.1001H188.959L196.859 53.8001L205.259 29.1001H214.159L222.559 53.8001L230.659 29.1001H242.659L228.159 70.0001H218.159V70.0001Z"
      fill="black" />
    <path
      d="M245.759 49.5C245.759 46.4 246.259 43.6 247.359 40.9C248.459 38.3 249.959 36 251.859 34.1C253.759 32.2 256.059 30.7 258.759 29.6C261.459 28.5 264.359 28 267.559 28C269.359 28 271.059 28.2 272.859 28.6C274.659 29 276.259 29.7 277.759 30.5V41.8C274.959 39.8 271.959 38.8 268.859 38.8C267.259 38.8 265.759 39.1 264.459 39.6C263.159 40.1 261.959 40.9 260.959 41.8C259.959 42.7 259.159 43.9 258.659 45.2C258.059 46.5 257.859 47.9 257.859 49.5C257.859 51.1 258.159 52.5 258.659 53.8C259.159 55.1 259.959 56.2 260.959 57.2C261.959 58.1 263.159 58.9 264.459 59.4C265.759 59.9 267.259 60.2 268.859 60.2C270.459 60.2 272.059 59.9 273.559 59.3C275.059 58.7 276.559 58 277.759 57V68.4C276.059 69.3 274.359 70 272.559 70.4C270.759 70.8 268.959 71 267.259 71C264.159 71 261.259 70.5 258.559 69.4C255.959 68.4 253.659 66.9 251.659 65C249.759 63.1 248.259 60.9 247.159 58.2C246.059 55.5 245.559 52.6 245.559 49.4L245.759 49.5Z"
      fill="black" />
    <path
      d="M298.459 70.0001H286.359V12.1001H298.459V34.3001C299.759 32.3001 301.359 30.8001 303.359 29.7001C305.359 28.6001 307.759 28.0001 310.559 28.0001C315.259 28.0001 318.959 29.5001 321.559 32.5001C324.159 35.5001 325.559 39.6001 325.559 44.7001V69.9001H313.459V47.4001C313.459 44.8001 312.859 42.7001 311.559 41.2001C310.259 39.7001 308.459 39.0001 306.159 39.0001C303.859 39.0001 301.859 39.8001 300.459 41.5001C299.059 43.2001 298.359 45.4001 298.359 48.2001V69.9001L298.459 70.0001Z"
      fill="black" />
    <path
      d="M377.759 29.1001V70.0001H365.959V64.5001C364.559 66.6001 362.659 68.2001 360.259 69.3001C357.959 70.4001 355.359 71.0001 352.659 71.0001C349.959 71.0001 347.359 70.4001 344.959 69.3001C342.659 68.2001 340.559 66.7001 338.859 64.8001C337.159 62.9001 335.759 60.6001 334.759 58.0001C333.759 55.4001 333.259 52.6001 333.259 49.5001C333.259 46.4001 333.759 43.7001 334.759 41.1001C335.759 38.5001 337.159 36.2001 338.859 34.3001C340.559 32.4001 342.659 30.9001 344.959 29.8001C347.259 28.7001 349.859 28.1001 352.659 28.1001C355.459 28.1001 357.859 28.6001 360.259 29.7001C362.559 30.7001 364.459 32.3001 365.959 34.4001V29.1001H377.759ZM345.359 49.5001C345.359 51.0001 345.659 52.4001 346.159 53.6001C346.759 54.9001 347.459 56.0001 348.359 56.9001C349.259 57.8001 350.359 58.6001 351.659 59.2001C352.959 59.8001 354.259 60.0001 355.759 60.0001C357.259 60.0001 358.659 59.7001 359.859 59.2001C361.159 58.7001 362.259 57.9001 363.159 56.9001C364.059 55.9001 364.859 54.8001 365.359 53.6001C365.959 52.3001 366.159 50.9001 366.159 49.5001C366.159 48.1001 365.859 46.6001 365.359 45.4001C364.859 44.1001 364.059 43.0001 363.159 42.1001C362.259 41.1001 361.159 40.4001 359.859 39.8001C358.559 39.2001 357.259 39.0001 355.759 39.0001C354.259 39.0001 352.859 39.3001 351.659 39.8001C350.359 40.3001 349.259 41.1001 348.359 42.1001C347.459 43.1001 346.659 44.2001 346.159 45.4001C345.659 46.7001 345.359 48.1001 345.359 49.5001Z"
      fill="black" />
  </g>
  <defs>
    <clipPath id="clip0_27673_49773">
      <rect width="377" height="80" fill="white" transform="translate(0.758759)" />
    </clipPath>
  </defs>
</svg>