<svg width="24px" height="23.7px" viewBox="0 0 81 80" fill="none" xmlns="http://www.w3.org/2000/svg">
  <path d="M60.7588 40H20.7588C20.7588 29 29.7588 20 40.7588 20C51.7588 20 60.7588 29 60.7588 40Z" fill="black" />
  <path
    d="M40.7588 0C18.6588 0 0.758759 17.9 0.758759 40C0.758759 62.1 18.6588 80 40.7588 80C62.8588 80 80.7588 62.1 80.7588 40C80.7588 17.9 62.8588 0 40.7588 0ZM40.7588 70C24.2588 70 10.7588 56.5 10.7588 40C10.7588 23.5 24.2588 10 40.7588 10C57.2588 10 70.7588 23.5 70.7588 40C70.7588 56.5 57.2588 70 40.7588 70Z"
    fill="black" />
</svg>